<svg xmlns="http://www.w3.org/2000/svg" xmlns:xlink="http://www.w3.org/1999/xlink" viewBox="0 0 936 936"><defs><style>.cls-1,.cls-5,.cls-8{fill:none;}.cls-2{fill:#19232b;}.cls-3{fill:#41b883;}.cls-4{clip-path:url(#clip-path);}.cls-5,.cls-7{stroke:#41b883;}.cls-5,.cls-7,.cls-8{stroke-miterlimit:10;}.cls-5,.cls-8{stroke-width:100px;}.cls-6,.cls-7{fill:#35495e;}.cls-7{stroke-width:60px;}.cls-8{stroke:#35495e;}.cls-9{clip-path:url(#clip-path-2);}</style><clipPath id="clip-path"><circle class="cls-1" cx="468" cy="468" r="468"/></clipPath><clipPath id="clip-path-2"><rect class="cls-1" x="-72" y="468" width="1080" height="468"/></clipPath></defs><title>Logo #3.1 201703162238</title><g id="Calque_1" data-name="Calque 1"><path class="cls-2" d="M468,886A418.12,418.12,0,0,1,305.31,82.83,418.12,418.12,0,0,1,630.69,853.17,415.33,415.33,0,0,1,468,886Z"/><path class="cls-3" d="M468,100A368.12,368.12,0,0,1,611.21,807.12,368.12,368.12,0,0,1,324.79,128.88,365.6,365.6,0,0,1,468,100M468,0C209.53,0,0,209.53,0,468S209.53,936,468,936,936,726.47,936,468,726.47,0,468,0Z"/></g><g id="Calque_2" data-name="Calque 2"><g class="cls-4"><line class="cls-5" x1="621" x2="621" y2="936"/><polygon class="cls-6" points="675 612 144 0.23 251.5 935 675 612"/><polygon class="cls-7" points="675 612 144 0.23 251.5 935 675 936 675 612"/><line class="cls-8" x1="720" x2="720" y2="936"/><polygon class="cls-6" points="675 612 144 0.23 251.5 935 675 936 675 612"/><line class="cls-5" x1="171" x2="252" y2="936"/></g><g class="cls-9"><path class="cls-2" d="M468,159a307.85,307.85,0,1,1-120.26,24.26A307,307,0,0,1,468,159m0-60C264.21,99,99,264.21,99,468S264.21,837,468,837,837,671.79,837,468,671.79,99,468,99Z"/></g></g><g id="Calque_3" data-name="Calque 3"><path class="cls-3" d="M468,100A368.12,368.12,0,0,1,611.21,807.12,368.12,368.12,0,0,1,324.79,128.88,365.6,365.6,0,0,1,468,100M468,0C209.53,0,0,209.53,0,468S209.53,936,468,936,936,726.47,936,468,726.47,0,468,0Z"/></g></svg>